<svg width="1280" height="720" xmlns="http://www.w3.org/2000/svg" xmlns:xlink="http://www.w3.org/1999/xlink" overflow="hidden"><defs><filter id="fx0" x="-10%" y="-10%" width="120%" height="120%" filterUnits="userSpaceOnUse" primitiveUnits="userSpaceOnUse"><feComponentTransfer color-interpolation-filters="sRGB"><feFuncR type="discrete" tableValues="0 0"/><feFuncG type="discrete" tableValues="0 0"/><feFuncB type="discrete" tableValues="0 0"/><feFuncA type="linear" slope="0.0784314" intercept="0"/></feComponentTransfer><feGaussianBlur stdDeviation="6.66667 6.66667"/></filter><filter id="fx1" x="-10%" y="-10%" width="120%" height="120%" filterUnits="userSpaceOnUse" primitiveUnits="userSpaceOnUse"><feComponentTransfer color-interpolation-filters="sRGB"><feFuncR type="discrete" tableValues="0 0"/><feFuncG type="discrete" tableValues="0 0"/><feFuncB type="discrete" tableValues="0 0"/><feFuncA type="linear" slope="0.0784314" intercept="0"/></feComponentTransfer><feGaussianBlur stdDeviation="4.44444 4.44444"/></filter><filter id="fx2" x="-10%" y="-10%" width="120%" height="120%" filterUnits="userSpaceOnUse" primitiveUnits="userSpaceOnUse"><feComponentTransfer color-interpolation-filters="sRGB"><feFuncR type="discrete" tableValues="0 0"/><feFuncG type="discrete" tableValues="0 0"/><feFuncB type="discrete" tableValues="0 0"/><feFuncA type="linear" slope="0.0784314" intercept="0"/></feComponentTransfer><feGaussianBlur stdDeviation="4.44444 4.44444"/></filter><filter id="fx3" x="-10%" y="-10%" width="120%" height="120%" filterUnits="userSpaceOnUse" primitiveUnits="userSpaceOnUse"><feComponentTransfer color-interpolation-filters="sRGB"><feFuncR type="discrete" tableValues="0 0"/><feFuncG type="discrete" tableValues="0 0"/><feFuncB type="discrete" tableValues="0 0"/><feFuncA type="linear" slope="0.0784314" intercept="0"/></feComponentTransfer><feGaussianBlur stdDeviation="4.50533 4.44444"/></filter><filter id="fx4" x="-10%" y="-10%" width="120%" height="120%" filterUnits="userSpaceOnUse" primitiveUnits="userSpaceOnUse"><feComponentTransfer color-interpolation-filters="sRGB"><feFuncR type="discrete" tableValues="0 0"/><feFuncG type="discrete" tableValues="0 0"/><feFuncB type="discrete" tableValues="0 0"/><feFuncA type="linear" slope="0.0784314" intercept="0"/></feComponentTransfer><feGaussianBlur stdDeviation="4.45209 4.44444"/></filter><filter id="fx5" x="-10%" y="-10%" width="120%" height="120%" filterUnits="userSpaceOnUse" primitiveUnits="userSpaceOnUse"><feComponentTransfer color-interpolation-filters="sRGB"><feFuncR type="discrete" tableValues="0 0"/><feFuncG type="discrete" tableValues="0 0"/><feFuncB type="discrete" tableValues="0 0"/><feFuncA type="linear" slope="0.0784314" intercept="0"/></feComponentTransfer><feGaussianBlur stdDeviation="4.50533 4.44444"/></filter><filter id="fx6" x="-10%" y="-10%" width="120%" height="120%" filterUnits="userSpaceOnUse" primitiveUnits="userSpaceOnUse"><feComponentTransfer color-interpolation-filters="sRGB"><feFuncR type="discrete" tableValues="0 0"/><feFuncG type="discrete" tableValues="0 0"/><feFuncB type="discrete" tableValues="0 0"/><feFuncA type="linear" slope="0.0784314" intercept="0"/></feComponentTransfer><feGaussianBlur stdDeviation="4.45209 4.44444"/></filter><filter id="fx7" x="-10%" y="-10%" width="120%" height="120%" filterUnits="userSpaceOnUse" primitiveUnits="userSpaceOnUse"><feComponentTransfer color-interpolation-filters="sRGB"><feFuncR type="discrete" tableValues="0 0"/><feFuncG type="discrete" tableValues="0 0"/><feFuncB type="discrete" tableValues="0 0"/><feFuncA type="linear" slope="0.0784314" intercept="0"/></feComponentTransfer><feGaussianBlur stdDeviation="4.50533 4.44444"/></filter><filter id="fx8" x="-10%" y="-10%" width="120%" height="120%" filterUnits="userSpaceOnUse" primitiveUnits="userSpaceOnUse"><feComponentTransfer color-interpolation-filters="sRGB"><feFuncR type="discrete" tableValues="0 0"/><feFuncG type="discrete" tableValues="0 0"/><feFuncB type="discrete" tableValues="0 0"/><feFuncA type="linear" slope="0.0784314" intercept="0"/></feComponentTransfer><feGaussianBlur stdDeviation="4.45864 4.44444"/></filter><filter id="fx9" x="-10%" y="-10%" width="120%" height="120%" filterUnits="userSpaceOnUse" primitiveUnits="userSpaceOnUse"><feComponentTransfer color-interpolation-filters="sRGB"><feFuncR type="discrete" tableValues="0 0"/><feFuncG type="discrete" tableValues="0 0"/><feFuncB type="discrete" tableValues="0 0"/><feFuncA type="linear" slope="0.0784314" intercept="0"/></feComponentTransfer><feGaussianBlur stdDeviation="4.44444 4.44444"/></filter><filter id="fx10" x="-10%" y="-10%" width="120%" height="120%" filterUnits="userSpaceOnUse" primitiveUnits="userSpaceOnUse"><feComponentTransfer color-interpolation-filters="sRGB"><feFuncR type="discrete" tableValues="0 0"/><feFuncG type="discrete" tableValues="0 0"/><feFuncB type="discrete" tableValues="0 0"/><feFuncA type="linear" slope="0.0784314" intercept="0"/></feComponentTransfer><feGaussianBlur stdDeviation="4.44444 4.44444"/></filter><filter id="fx11" x="-10%" y="-10%" width="120%" height="120%" filterUnits="userSpaceOnUse" primitiveUnits="userSpaceOnUse"><feComponentTransfer color-interpolation-filters="sRGB"><feFuncR type="discrete" tableValues="0 0"/><feFuncG type="discrete" tableValues="0 0"/><feFuncB type="discrete" tableValues="0 0"/><feFuncA type="linear" slope="0.0784314" intercept="0"/></feComponentTransfer><feGaussianBlur stdDeviation="4.50533 4.44444"/></filter><filter id="fx12" x="-10%" y="-10%" width="120%" height="120%" filterUnits="userSpaceOnUse" primitiveUnits="userSpaceOnUse"><feComponentTransfer color-interpolation-filters="sRGB"><feFuncR type="discrete" tableValues="0 0"/><feFuncG type="discrete" tableValues="0 0"/><feFuncB type="discrete" tableValues="0 0"/><feFuncA type="linear" slope="0.0784314" intercept="0"/></feComponentTransfer><feGaussianBlur stdDeviation="4.45864 4.44444"/></filter><filter id="fx13" x="-10%" y="-10%" width="120%" height="120%" filterUnits="userSpaceOnUse" primitiveUnits="userSpaceOnUse"><feComponentTransfer color-interpolation-filters="sRGB"><feFuncR type="discrete" tableValues="0 0"/><feFuncG type="discrete" tableValues="0 0"/><feFuncB type="discrete" tableValues="0 0"/><feFuncA type="linear" slope="0.0784314" intercept="0"/></feComponentTransfer><feGaussianBlur stdDeviation="4.44444 4.44444"/></filter><filter id="fx14" x="-10%" y="-10%" width="120%" height="120%" filterUnits="userSpaceOnUse" primitiveUnits="userSpaceOnUse"><feComponentTransfer color-interpolation-filters="sRGB"><feFuncR type="discrete" tableValues="0 0"/><feFuncG type="discrete" tableValues="0 0"/><feFuncB type="discrete" tableValues="0 0"/><feFuncA type="linear" slope="0.0784314" intercept="0"/></feComponentTransfer><feGaussianBlur stdDeviation="4.44444 4.44444"/></filter><clipPath id="clip15"><rect x="0" y="0" width="1280" height="720"/></clipPath><clipPath id="clip16"><rect x="0.506836" y="0.5" width="35.9863" height="36"/></clipPath><clipPath id="clip17"><rect x="0" y="0" width="37" height="39"/></clipPath><clipPath id="clip18"><rect x="0" y="0" width="291" height="193"/></clipPath><clipPath id="clip19"><rect x="0.506836" y="0.5" width="35.9863" height="36"/></clipPath><clipPath id="clip20"><rect x="0" y="0" width="37" height="39"/></clipPath><clipPath id="clip21"><rect x="0" y="0" width="291" height="193"/></clipPath><clipPath id="clip22"><rect x="0.506851" y="0.5" width="35.9863" height="36"/></clipPath><clipPath id="clip23"><rect x="0" y="0" width="37" height="39"/></clipPath><clipPath id="clip24"><rect x="0" y="0" width="157" height="87"/></clipPath><clipPath id="clip25"><rect x="0.5" y="0.5" width="36" height="36"/></clipPath><clipPath id="clip26"><rect x="0.506836" y="0.5" width="35.9863" height="36"/></clipPath><clipPath id="clip27"><rect x="0" y="0" width="37" height="39"/></clipPath><clipPath id="clip28"><rect x="0.5" y="0.5" width="36" height="36"/></clipPath></defs><g clip-path="url(#clip15)"><rect x="0" y="0" width="1280" height="720" fill="#F3F4F6"/><g filter="url(#fx0)" transform="matrix(2 0 0 2 -34 -40)"><g><rect x="20.3333" y="20" width="92" height="360" fill="#001E50"/></g></g><rect x="0" y="0" width="184" height="720" fill="#001E50"/><g filter="url(#fx1)" transform="matrix(2 0 0 2 179 -5)"><g><path d="M13.8333 18.1949C13.8333 15.8781 15.7114 14 18.0282 14L538.638 14C540.955 14 542.833 15.8781 542.833 18.1949L542.833 33.8051C542.833 36.1219 540.955 38 538.638 38L18.0282 38C15.7114 38 13.8333 36.1219 13.8333 33.8051Z" fill="#FFFFFF" fill-rule="evenodd"/></g></g><path d="M204 31.3897C204 26.7562 207.756 23 212.39 23L1253.61 23C1258.24 23 1262 26.7562 1262 31.3897L1262 62.6103C1262 67.2438 1258.24 71 1253.61 71L212.39 71C207.756 71 204 67.2438 204 62.6103Z" fill="#FFFFFF" fill-rule="evenodd"/><g filter="url(#fx2)" transform="matrix(2 0 0 2 179 177)"><g><path d="M13.8333 17.95C13.8333 15.7685 15.6018 14 17.7833 14L138.883 14C141.065 14 142.833 15.7685 142.833 17.95L142.833 69.05C142.833 71.2315 141.065 73 138.883 73L17.7833 73C15.6018 73 13.8333 71.2315 13.8333 69.05Z" fill="#FFFFFF" fill-rule="evenodd"/></g></g><g clip-path="url(#clip16)" filter="url(#fx3)" transform="matrix(1.97297 0 0 2 299 227)"><g clip-path="url(#clip17)"><path d="M2.82852 0.0863281C2.38164 0.0863281 1.98555-0.0076172 1.64023-0.195508 1.29492-0.383398 1.02493-0.666081 0.830273-1.04355 0.635612-1.42103 0.538281-1.89414 0.538281-2.46289 0.538281-3.03164 0.633919-3.50645 0.825195-3.8873 1.01647-4.26816 1.28392-4.55423 1.62754-4.74551 1.97116-4.93678 2.37148-5.03242 2.82852-5.03242 3.21107-5.03242 3.55553-4.96979 3.86191-4.84453 4.16829-4.71927 4.41289-4.53053 4.5957-4.27832 4.77852-4.02611 4.875-3.70703 4.88516-3.32109L4.04727-3.32109C4.02695-3.63932 3.91185-3.88984 3.70195-4.07266 3.49206-4.25547 3.20599-4.34687 2.84375-4.34687 2.36302-4.34687 2.00417-4.18184 1.76719-3.85176 1.53021-3.52168 1.41172-3.05872 1.41172-2.46289 1.41172-2.0668 1.46419-1.73079 1.56914-1.45488 1.67409-1.17897 1.8332-0.967383 2.04648-0.820117 2.25977-0.672852 2.52552-0.599219 2.84375-0.599219 3.20599-0.599219 3.50052-0.693164 3.72734-0.881055 3.95417-1.06895 4.07266-1.34401 4.08281-1.70625L4.9207-1.70625C4.91055-1.30677 4.81322-0.974154 4.62871-0.708398 4.44421-0.442643 4.19538-0.24375 3.88223-0.111719 3.56908 0.0203125 3.21784 0.0863281 2.82852 0.0863281Z" fill="#FFFFFF" transform="matrix(0.506849 0 0 0.5 17.1308 20)"/></g></g><path d="M204 212.9C204 208.537 207.537 205 211.9 205L454.1 205C458.463 205 462 208.537 462 212.9L462 315.1C462 319.463 458.463 323 454.1 323L211.9 323C207.537 323 204 319.463 204 315.1Z" fill="#FFFFFF" fill-rule="evenodd"/><text fill="#FFFFFF" font-family="Aptos,Aptos_MSFontService,sans-serif" font-weight="400" font-size="10.4" transform="translate(330.132 268)">c</text><g filter="url(#fx4)" transform="matrix(1.99656 0 0 2 712 341)"><g clip-path="url(#clip18)" transform="translate(-5.68434e-14 0)"><path d="M13.8571 18.7436C13.8571 16.1238 15.9846 14 18.6089 14L272.057 14C274.682 14 276.809 16.1238 276.809 18.7436L276.809 174.256C276.809 176.876 274.682 179 272.057 179L18.6089 179C15.9846 179 13.8571 176.876 13.8571 174.256Z" fill="#FFFFFF" fill-rule="evenodd"/></g></g><g clip-path="url(#clip19)" filter="url(#fx5)" transform="matrix(1.97297 0 0 2 966 497)"><g clip-path="url(#clip20)"><path d="M2.82852 0.0863281C2.38164 0.0863281 1.98555-0.0076172 1.64023-0.195508 1.29492-0.383398 1.02493-0.666081 0.830273-1.04355 0.635612-1.42103 0.538281-1.89414 0.538281-2.46289 0.538281-3.03164 0.633919-3.50645 0.825195-3.8873 1.01647-4.26816 1.28392-4.55423 1.62754-4.74551 1.97116-4.93678 2.37148-5.03242 2.82852-5.03242 3.21107-5.03242 3.55553-4.96979 3.86191-4.84453 4.16829-4.71927 4.41289-4.53053 4.5957-4.27832 4.77852-4.02611 4.875-3.70703 4.88516-3.32109L4.04727-3.32109C4.02695-3.63932 3.91185-3.88984 3.70195-4.07266 3.49206-4.25547 3.20599-4.34687 2.84375-4.34687 2.36302-4.34687 2.00417-4.18184 1.76719-3.85176 1.53021-3.52168 1.41172-3.05872 1.41172-2.46289 1.41172-2.0668 1.46419-1.73079 1.56914-1.45488 1.67409-1.17897 1.8332-0.967383 2.04648-0.820117 2.25977-0.672852 2.52552-0.599219 2.84375-0.599219 3.20599-0.599219 3.50052-0.693164 3.72734-0.881055 3.95417-1.06895 4.07266-1.34401 4.08281-1.70625L4.9207-1.70625C4.91055-1.30677 4.81322-0.974154 4.62871-0.708398 4.44421-0.442643 4.19538-0.24375 3.88223-0.111719 3.56908 0.0203125 3.21784 0.0863281 2.82852 0.0863281Z" fill="#FFFFFF" transform="matrix(0.506849 0 0 0.5 16.9831 20)"/></g></g><path d="M737 378.487C737 373.248 741.248 369 746.487 369L1252.51 369C1257.75 369 1262 373.248 1262 378.487L1262 689.513C1262 694.752 1257.75 699 1252.51 699L746.487 699C741.248 699 737 694.752 737 689.513Z" fill="#FFFFFF" fill-rule="evenodd"/><text fill="#FFFFFF" font-family="Aptos,Aptos_MSFontService,sans-serif" font-weight="400" font-size="10.4" transform="translate(996.841 538)">c</text><path d="M16 31.1669C16 26.6564 19.6564 23 24.1668 23L159.833 23C164.344 23 168 26.6564 168 31.1669L168 63.8331C168 68.3436 164.344 72 159.833 72L24.1668 72C19.6564 72 16 68.3436 16 63.8331Z" stroke="#BFBFBF" stroke-width="2" stroke-miterlimit="8" fill="none" fill-rule="evenodd"/><text fill="#FFFFFF" font-family="Aptos,Aptos_MSFontService,sans-serif" font-weight="700" font-size="24" transform="translate(59.86 55)">LOGO</text><g filter="url(#fx6)" transform="matrix(1.99656 0 0 2 179 341)"><g clip-path="url(#clip21)" transform="translate(-1.42109e-14 0)"><path d="M13.8571 18.7436C13.8571 16.1238 15.9846 14 18.6089 14L272.057 14C274.682 14 276.809 16.1238 276.809 18.7436L276.809 174.256C276.809 176.876 274.682 179 272.057 179L18.6089 179C15.9846 179 13.8571 176.876 13.8571 174.256Z" fill="#FFFFFF" fill-rule="evenodd"/></g></g><g clip-path="url(#clip22)" filter="url(#fx7)" transform="matrix(1.97297 0 0 2 433 497)"><g clip-path="url(#clip23)"><path d="M2.82852 0.0863281C2.38164 0.0863281 1.98555-0.0076172 1.64023-0.195508 1.29492-0.383398 1.02493-0.666081 0.830273-1.04355 0.635612-1.42103 0.538281-1.89414 0.538281-2.46289 0.538281-3.03164 0.633919-3.50645 0.825195-3.8873 1.01647-4.26816 1.28392-4.55423 1.62754-4.74551 1.97116-4.93678 2.37148-5.03242 2.82852-5.03242 3.21107-5.03242 3.55553-4.96979 3.86191-4.84453 4.16829-4.71927 4.41289-4.53053 4.5957-4.27832 4.77852-4.02611 4.875-3.70703 4.88516-3.32109L4.04727-3.32109C4.02695-3.63932 3.91185-3.88984 3.70195-4.07266 3.49206-4.25547 3.20599-4.34687 2.84375-4.34687 2.36302-4.34687 2.00417-4.18184 1.76719-3.85176 1.53021-3.52168 1.41172-3.05872 1.41172-2.46289 1.41172-2.0668 1.46419-1.73079 1.56914-1.45488 1.67409-1.17897 1.8332-0.967383 2.04648-0.820117 2.25977-0.672852 2.52552-0.599219 2.84375-0.599219 3.20599-0.599219 3.50052-0.693164 3.72734-0.881055 3.95417-1.06895 4.07266-1.34401 4.08281-1.70625L4.9207-1.70625C4.91055-1.30677 4.81322-0.974154 4.62871-0.708398 4.44421-0.442643 4.19538-0.24375 3.88223-0.111719 3.56908 0.0203125 3.21784 0.0863281 2.82852 0.0863281Z" fill="#FFFFFF" transform="matrix(0.506849 0 0 0.5 17.027 20)"/></g></g><path d="M204 378.487C204 373.248 208.248 369 213.487 369L719.513 369C724.752 369 729 373.248 729 378.487L729 689.513C729 694.752 724.752 699 719.513 699L213.487 699C208.248 699 204 694.752 204 689.513Z" fill="#FFFFFF" fill-rule="evenodd"/><text fill="#FFFFFF" font-family="Aptos,Aptos_MSFontService,sans-serif" font-weight="400" font-size="10.4" transform="translate(463.927 538)">c</text><g filter="url(#fx8)" transform="matrix(1.99363 0 0 2 980 177)"><g clip-path="url(#clip24)"><path d="M13.8775 17.95C13.8775 15.7685 15.6517 14 17.8402 14L138.825 14C141.014 14 142.788 15.7685 142.788 17.95L142.788 69.05C142.788 71.2315 141.014 73 138.825 73L17.8402 73C15.6517 73 13.8775 71.2315 13.8775 69.05Z" fill="#FFFFFF" fill-rule="evenodd"/></g></g><g clip-path="url(#clip25)" filter="url(#fx9)" transform="matrix(2 0 0 2 1099 227)"><g><path d="M2.82852 0.0863281C2.38164 0.0863281 1.98555-0.0076172 1.64023-0.195508 1.29492-0.383398 1.02493-0.666081 0.830273-1.04355 0.635612-1.42103 0.538281-1.89414 0.538281-2.46289 0.538281-3.03164 0.633919-3.50645 0.825195-3.8873 1.01647-4.26816 1.28392-4.55423 1.62754-4.74551 1.97116-4.93678 2.37148-5.03242 2.82852-5.03242 3.21107-5.03242 3.55553-4.96979 3.86191-4.84453 4.16829-4.71927 4.41289-4.53053 4.5957-4.27832 4.77852-4.02611 4.875-3.70703 4.88516-3.32109L4.04727-3.32109C4.02695-3.63932 3.91185-3.88984 3.70195-4.07266 3.49206-4.25547 3.20599-4.34687 2.84375-4.34687 2.36302-4.34687 2.00417-4.18184 1.76719-3.85176 1.53021-3.52168 1.41172-3.05872 1.41172-2.46289 1.41172-2.0668 1.46419-1.73079 1.56914-1.45488 1.67409-1.17897 1.8332-0.967383 2.04648-0.820117 2.25977-0.672852 2.52552-0.599219 2.84375-0.599219 3.20599-0.599219 3.50052-0.693164 3.72734-0.881055 3.95417-1.06895 4.07266-1.34401 4.08281-1.70625L4.9207-1.70625C4.91055-1.30677 4.81322-0.974154 4.62871-0.708398 4.44421-0.442643 4.19538-0.24375 3.88223-0.111719 3.56908 0.0203125 3.21784 0.0863281 2.82852 0.0863281Z" fill="#FFFFFF" transform="matrix(0.5 0 0 0.5 17.1512 20)"/></g></g><path d="M1005 212.9C1005 208.537 1008.54 205 1012.9 205L1254.1 205C1258.46 205 1262 208.537 1262 212.9L1262 315.1C1262 319.463 1258.46 323 1254.1 323L1012.9 323C1008.54 323 1005 319.463 1005 315.1Z" fill="#FFFFFF" fill-rule="evenodd"/><text fill="#FFFFFF" font-family="Aptos,Aptos_MSFontService,sans-serif" font-weight="400" font-size="10.4" transform="translate(1130.64 268)">c</text><g filter="url(#fx10)" transform="matrix(2 0 0 2 446 177)"><g><path d="M13.8333 17.95C13.8333 15.7685 15.6018 14 17.7833 14L138.883 14C141.065 14 142.833 15.7685 142.833 17.95L142.833 69.05C142.833 71.2315 141.065 73 138.883 73L17.7833 73C15.6018 73 13.8333 71.2315 13.8333 69.05Z" fill="#FFFFFF" fill-rule="evenodd"/></g></g><g clip-path="url(#clip26)" filter="url(#fx11)" transform="matrix(1.97297 0 0 2 566 227)"><g clip-path="url(#clip27)"><path d="M2.82852 0.0863281C2.38164 0.0863281 1.98555-0.0076172 1.64023-0.195508 1.29492-0.383398 1.02493-0.666081 0.830273-1.04355 0.635612-1.42103 0.538281-1.89414 0.538281-2.46289 0.538281-3.03164 0.633919-3.50645 0.825195-3.8873 1.01647-4.26816 1.28392-4.55423 1.62754-4.74551 1.97116-4.93678 2.37148-5.03242 2.82852-5.03242 3.21107-5.03242 3.55553-4.96979 3.86191-4.84453 4.16829-4.71927 4.41289-4.53053 4.5957-4.27832 4.77852-4.02611 4.875-3.70703 4.88516-3.32109L4.04727-3.32109C4.02695-3.63932 3.91185-3.88984 3.70195-4.07266 3.49206-4.25547 3.20599-4.34687 2.84375-4.34687 2.36302-4.34687 2.00417-4.18184 1.76719-3.85176 1.53021-3.52168 1.41172-3.05872 1.41172-2.46289 1.41172-2.0668 1.46419-1.73079 1.56914-1.45488 1.67409-1.17897 1.8332-0.967383 2.04648-0.820117 2.25977-0.672852 2.52552-0.599219 2.84375-0.599219 3.20599-0.599219 3.50052-0.693164 3.72734-0.881055 3.95417-1.06895 4.07266-1.34401 4.08281-1.70625L4.9207-1.70625C4.91055-1.30677 4.81322-0.974154 4.62871-0.708398 4.44421-0.442643 4.19538-0.24375 3.88223-0.111719 3.56908 0.0203125 3.21784 0.0863281 2.82852 0.0863281Z" fill="#FFFFFF" transform="matrix(0.506849 0 0 0.5 17.0469 20)"/></g></g><path d="M471 212.9C471 208.537 474.537 205 478.9 205L721.1 205C725.463 205 729 208.537 729 212.9L729 315.1C729 319.463 725.463 323 721.1 323L478.9 323C474.537 323 471 319.463 471 315.1Z" fill="#FFFFFF" fill-rule="evenodd"/><text fill="#FFFFFF" font-family="Aptos,Aptos_MSFontService,sans-serif" font-weight="400" font-size="10.4" transform="translate(596.966 268)">c</text><g filter="url(#fx12)" transform="matrix(1.99363 0 0 2 713 177)"><g transform="translate(-5.68434e-14 0)"><path d="M13.8776 17.95C13.8776 15.7685 15.6517 14 17.8402 14L138.825 14C141.014 14 142.788 15.7685 142.788 17.95L142.788 69.05C142.788 71.2315 141.014 73 138.825 73L17.8402 73C15.6517 73 13.8776 71.2315 13.8776 69.05Z" fill="#FFFFFF" fill-rule="evenodd"/></g></g><g clip-path="url(#clip28)" filter="url(#fx13)" transform="matrix(2 0 0 2 832 227)"><g><path d="M2.82852 0.0863281C2.38164 0.0863281 1.98555-0.0076172 1.64023-0.195508 1.29492-0.383398 1.02493-0.666081 0.830273-1.04355 0.635612-1.42103 0.538281-1.89414 0.538281-2.46289 0.538281-3.03164 0.633919-3.50645 0.825195-3.8873 1.01647-4.26816 1.28392-4.55423 1.62754-4.74551 1.97116-4.93678 2.37148-5.03242 2.82852-5.03242 3.21107-5.03242 3.55553-4.96979 3.86191-4.84453 4.16829-4.71927 4.41289-4.53053 4.5957-4.27832 4.77852-4.02611 4.875-3.70703 4.88516-3.32109L4.04727-3.32109C4.02695-3.63932 3.91185-3.88984 3.70195-4.07266 3.49206-4.25547 3.20599-4.34687 2.84375-4.34687 2.36302-4.34687 2.00417-4.18184 1.76719-3.85176 1.53021-3.52168 1.41172-3.05872 1.41172-2.46289 1.41172-2.0668 1.46419-1.73079 1.56914-1.45488 1.67409-1.17897 1.8332-0.967383 2.04648-0.820117 2.25977-0.672852 2.52552-0.599219 2.84375-0.599219 3.20599-0.599219 3.50052-0.693164 3.72734-0.881055 3.95417-1.06895 4.07266-1.34401 4.08281-1.70625L4.9207-1.70625C4.91055-1.30677 4.81322-0.974154 4.62871-0.708398 4.44421-0.442643 4.19538-0.24375 3.88223-0.111719 3.56908 0.0203125 3.21784 0.0863281 2.82852 0.0863281Z" fill="#FFFFFF" transform="matrix(0.5 0 0 0.5 17.2339 20)"/></g></g><path d="M738 212.9C738 208.537 741.537 205 745.9 205L987.1 205C991.463 205 995 208.537 995 212.9L995 315.1C995 319.463 991.463 323 987.1 323L745.9 323C741.537 323 738 319.463 738 315.1Z" fill="#FFFFFF" fill-rule="evenodd"/><text fill="#FFFFFF" font-family="Aptos,Aptos_MSFontService,sans-serif" font-weight="400" font-size="10.4" transform="translate(863.801 268)">c</text><g filter="url(#fx14)" transform="matrix(2 0 0 2 179 86)"><g><path d="M13.8333 18.1949C13.8333 15.8781 15.7114 14 18.0282 14L538.638 14C540.955 14 542.833 15.8781 542.833 18.1949L542.833 33.8051C542.833 36.1219 540.955 38 538.638 38L18.0282 38C15.7114 38 13.8333 36.1219 13.8333 33.8051Z" fill="#FFFFFF" fill-rule="evenodd"/></g></g><path d="M204 122.39C204 117.756 207.756 114 212.39 114L1253.61 114C1258.24 114 1262 117.756 1262 122.39L1262 153.61C1262 158.244 1258.24 162 1253.61 162L212.39 162C207.756 162 204 158.244 204 153.61Z" fill="#FFFFFF" fill-rule="evenodd"/></g></svg>