<svg width="1280" height="720" xmlns="http://www.w3.org/2000/svg" xmlns:xlink="http://www.w3.org/1999/xlink" overflow="hidden"><defs><filter id="fx0" x="-10%" y="-10%" width="120%" height="120%" filterUnits="userSpaceOnUse" primitiveUnits="userSpaceOnUse"><feComponentTransfer color-interpolation-filters="sRGB"><feFuncR type="discrete" tableValues="0 0"/><feFuncG type="discrete" tableValues="0 0"/><feFuncB type="discrete" tableValues="0 0"/><feFuncA type="linear" slope="0.0784314" intercept="0"/></feComponentTransfer><feGaussianBlur stdDeviation="6.66667 6.66667"/></filter><filter id="fx1" x="-10%" y="-10%" width="120%" height="120%" filterUnits="userSpaceOnUse" primitiveUnits="userSpaceOnUse"><feComponentTransfer color-interpolation-filters="sRGB"><feFuncR type="discrete" tableValues="0 0"/><feFuncG type="discrete" tableValues="0 0"/><feFuncB type="discrete" tableValues="0 0"/><feFuncA type="linear" slope="0.0784314" intercept="0"/></feComponentTransfer><feGaussianBlur stdDeviation="4.4616 4.46592"/></filter><filter id="fx2" x="-10%" y="-10%" width="120%" height="120%" filterUnits="userSpaceOnUse" primitiveUnits="userSpaceOnUse"><feComponentTransfer color-interpolation-filters="sRGB"><feFuncR type="discrete" tableValues="0 0"/><feFuncG type="discrete" tableValues="0 0"/><feFuncB type="discrete" tableValues="0 0"/><feFuncA type="linear" slope="0.0784314" intercept="0"/></feComponentTransfer><feGaussianBlur stdDeviation="4.44444 4.44444"/></filter><filter id="fx3" x="-10%" y="-10%" width="120%" height="120%" filterUnits="userSpaceOnUse" primitiveUnits="userSpaceOnUse"><feComponentTransfer color-interpolation-filters="sRGB"><feFuncR type="discrete" tableValues="0 0"/><feFuncG type="discrete" tableValues="0 0"/><feFuncB type="discrete" tableValues="0 0"/><feFuncA type="linear" slope="0.0784314" intercept="0"/></feComponentTransfer><feGaussianBlur stdDeviation="4.4538 4.44444"/></filter><filter id="fx4" x="-10%" y="-10%" width="120%" height="120%" filterUnits="userSpaceOnUse" primitiveUnits="userSpaceOnUse"><feComponentTransfer color-interpolation-filters="sRGB"><feFuncR type="discrete" tableValues="0 0"/><feFuncG type="discrete" tableValues="0 0"/><feFuncB type="discrete" tableValues="0 0"/><feFuncA type="linear" slope="0.0784314" intercept="0"/></feComponentTransfer><feGaussianBlur stdDeviation="4.50533 4.44444"/></filter><filter id="fx5" x="-10%" y="-10%" width="120%" height="120%" filterUnits="userSpaceOnUse" primitiveUnits="userSpaceOnUse"><feComponentTransfer color-interpolation-filters="sRGB"><feFuncR type="discrete" tableValues="0 0"/><feFuncG type="discrete" tableValues="0 0"/><feFuncB type="discrete" tableValues="0 0"/><feFuncA type="linear" slope="0.0784314" intercept="0"/></feComponentTransfer><feGaussianBlur stdDeviation="4.44444 4.44444"/></filter><filter id="fx6" x="-10%" y="-10%" width="120%" height="120%" filterUnits="userSpaceOnUse" primitiveUnits="userSpaceOnUse"><feComponentTransfer color-interpolation-filters="sRGB"><feFuncR type="discrete" tableValues="0 0"/><feFuncG type="discrete" tableValues="0 0"/><feFuncB type="discrete" tableValues="0 0"/><feFuncA type="linear" slope="0.0784314" intercept="0"/></feComponentTransfer><feGaussianBlur stdDeviation="4.44444 4.44444"/></filter><filter id="fx7" x="-10%" y="-10%" width="120%" height="120%" filterUnits="userSpaceOnUse" primitiveUnits="userSpaceOnUse"><feComponentTransfer color-interpolation-filters="sRGB"><feFuncR type="discrete" tableValues="0 0"/><feFuncG type="discrete" tableValues="0 0"/><feFuncB type="discrete" tableValues="0 0"/><feFuncA type="linear" slope="0.0784314" intercept="0"/></feComponentTransfer><feGaussianBlur stdDeviation="4.44444 4.46592"/></filter><filter id="fx8" x="-10%" y="-10%" width="120%" height="120%" filterUnits="userSpaceOnUse" primitiveUnits="userSpaceOnUse"><feComponentTransfer color-interpolation-filters="sRGB"><feFuncR type="discrete" tableValues="0 0"/><feFuncG type="discrete" tableValues="0 0"/><feFuncB type="discrete" tableValues="0 0"/><feFuncA type="linear" slope="0.0784314" intercept="0"/></feComponentTransfer><feGaussianBlur stdDeviation="4.44444 4.44444"/></filter><filter id="fx9" x="-10%" y="-10%" width="120%" height="120%" filterUnits="userSpaceOnUse" primitiveUnits="userSpaceOnUse"><feComponentTransfer color-interpolation-filters="sRGB"><feFuncR type="discrete" tableValues="0 0"/><feFuncG type="discrete" tableValues="0 0"/><feFuncB type="discrete" tableValues="0 0"/><feFuncA type="linear" slope="0.0784314" intercept="0"/></feComponentTransfer><feGaussianBlur stdDeviation="4.46174 4.46592"/></filter><filter id="fx10" x="-10%" y="-10%" width="120%" height="120%" filterUnits="userSpaceOnUse" primitiveUnits="userSpaceOnUse"><feComponentTransfer color-interpolation-filters="sRGB"><feFuncR type="discrete" tableValues="0 0"/><feFuncG type="discrete" tableValues="0 0"/><feFuncB type="discrete" tableValues="0 0"/><feFuncA type="linear" slope="0.0784314" intercept="0"/></feComponentTransfer><feGaussianBlur stdDeviation="4.44444 4.44444"/></filter><filter id="fx11" x="-10%" y="-10%" width="120%" height="120%" filterUnits="userSpaceOnUse" primitiveUnits="userSpaceOnUse"><feComponentTransfer color-interpolation-filters="sRGB"><feFuncR type="discrete" tableValues="0 0"/><feFuncG type="discrete" tableValues="0 0"/><feFuncB type="discrete" tableValues="0 0"/><feFuncA type="linear" slope="0.0784314" intercept="0"/></feComponentTransfer><feGaussianBlur stdDeviation="4.44444 4.46592"/></filter><filter id="fx12" x="-10%" y="-10%" width="120%" height="120%" filterUnits="userSpaceOnUse" primitiveUnits="userSpaceOnUse"><feComponentTransfer color-interpolation-filters="sRGB"><feFuncR type="discrete" tableValues="0 0"/><feFuncG type="discrete" tableValues="0 0"/><feFuncB type="discrete" tableValues="0 0"/><feFuncA type="linear" slope="0.0784314" intercept="0"/></feComponentTransfer><feGaussianBlur stdDeviation="4.44444 4.44444"/></filter><filter id="fx13" x="-10%" y="-10%" width="120%" height="120%" filterUnits="userSpaceOnUse" primitiveUnits="userSpaceOnUse"><feComponentTransfer color-interpolation-filters="sRGB"><feFuncR type="discrete" tableValues="0 0"/><feFuncG type="discrete" tableValues="0 0"/><feFuncB type="discrete" tableValues="0 0"/><feFuncA type="linear" slope="0.0784314" intercept="0"/></feComponentTransfer><feGaussianBlur stdDeviation="4.44444 4.46592"/></filter><filter id="fx14" x="-10%" y="-10%" width="120%" height="120%" filterUnits="userSpaceOnUse" primitiveUnits="userSpaceOnUse"><feComponentTransfer color-interpolation-filters="sRGB"><feFuncR type="discrete" tableValues="0 0"/><feFuncG type="discrete" tableValues="0 0"/><feFuncB type="discrete" tableValues="0 0"/><feFuncA type="linear" slope="0.0784314" intercept="0"/></feComponentTransfer><feGaussianBlur stdDeviation="4.44444 4.44444"/></filter><filter id="fx15" x="-10%" y="-10%" width="120%" height="120%" filterUnits="userSpaceOnUse" primitiveUnits="userSpaceOnUse"><feComponentTransfer color-interpolation-filters="sRGB"><feFuncR type="discrete" tableValues="0 0"/><feFuncG type="discrete" tableValues="0 0"/><feFuncB type="discrete" tableValues="0 0"/><feFuncA type="linear" slope="0.0784314" intercept="0"/></feComponentTransfer><feGaussianBlur stdDeviation="4.44444 4.44444"/></filter><filter id="fx16" x="-10%" y="-10%" width="120%" height="120%" filterUnits="userSpaceOnUse" primitiveUnits="userSpaceOnUse"><feComponentTransfer color-interpolation-filters="sRGB"><feFuncR type="discrete" tableValues="0 0"/><feFuncG type="discrete" tableValues="0 0"/><feFuncB type="discrete" tableValues="0 0"/><feFuncA type="linear" slope="0.0784314" intercept="0"/></feComponentTransfer><feGaussianBlur stdDeviation="4.44444 4.44444"/></filter><clipPath id="clip17"><rect x="0" y="0" width="1280" height="720"/></clipPath><clipPath id="clip18"><rect x="0" y="0" width="130" height="104"/></clipPath><clipPath id="clip19"><rect x="0.5" y="0.5" width="36" height="39"/></clipPath><clipPath id="clip20"><rect x="0" y="0" width="238" height="176"/></clipPath><clipPath id="clip21"><rect x="0.506836" y="0.5" width="35.9863" height="36"/></clipPath><clipPath id="clip22"><rect x="0" y="0" width="37" height="39"/></clipPath><clipPath id="clip23"><rect x="0" y="0" width="128" height="104"/></clipPath><clipPath id="clip24"><rect x="0.5" y="0.5" width="36" height="39"/></clipPath><clipPath id="clip25"><rect x="0" y="0" width="129" height="104"/></clipPath><clipPath id="clip26"><rect x="0.5" y="0.5" width="36" height="39"/></clipPath><clipPath id="clip27"><rect x="0" y="0" width="128" height="104"/></clipPath><clipPath id="clip28"><rect x="0.5" y="0.5" width="36" height="39"/></clipPath><clipPath id="clip29"><rect x="0" y="0" width="128" height="104"/></clipPath><clipPath id="clip30"><rect x="0.5" y="0.5" width="36" height="39"/></clipPath><clipPath id="clip31"><rect x="0.5" y="0.5" width="36" height="36"/></clipPath></defs><g clip-path="url(#clip17)"><rect x="0" y="0" width="1280" height="720" fill="#F3F4F6"/><g filter="url(#fx0)" transform="matrix(2 0 0 2 -34 -40)"><g><rect x="20.3333" y="20" width="92" height="360" fill="#001E50"/></g></g><rect x="0" y="0" width="184" height="720" fill="#001E50"/><g filter="url(#fx1)" transform="matrix(1.99231 0 0 1.99038 179 176)"><g clip-path="url(#clip18)"><path d="M13.8867 19.6612C13.8867 16.5719 16.3886 14.0676 19.4749 14.0676L110.191 14.0676C113.277 14.0676 115.779 16.5719 115.779 19.6612L115.779 84.3388C115.779 87.4281 113.277 89.9324 110.191 89.9324L19.4749 89.9324C16.3886 89.9324 13.8867 87.4281 13.8867 84.3388Z" fill="#FFFFFF" fill-rule="evenodd"/></g></g><g clip-path="url(#clip19)" filter="url(#fx2)" transform="matrix(2 0 0 2 271 242)"><g><path d="M2.82852 0.0863281C2.38164 0.0863281 1.98555-0.0076172 1.64023-0.195508 1.29492-0.383398 1.02493-0.666081 0.830273-1.04355 0.635612-1.42103 0.538281-1.89414 0.538281-2.46289 0.538281-3.03164 0.633919-3.50645 0.825195-3.8873 1.01647-4.26816 1.28392-4.55423 1.62754-4.74551 1.97116-4.93678 2.37148-5.03242 2.82852-5.03242 3.21107-5.03242 3.55553-4.96979 3.86191-4.84453 4.16829-4.71927 4.41289-4.53053 4.5957-4.27832 4.77852-4.02611 4.875-3.70703 4.88516-3.32109L4.04727-3.32109C4.02695-3.63932 3.91185-3.88984 3.70195-4.07266 3.49206-4.25547 3.20599-4.34687 2.84375-4.34687 2.36302-4.34687 2.00417-4.18184 1.76719-3.85176 1.53021-3.52168 1.41172-3.05872 1.41172-2.46289 1.41172-2.0668 1.46419-1.73079 1.56914-1.45488 1.67409-1.17897 1.8332-0.967383 2.04648-0.820117 2.25977-0.672852 2.52552-0.599219 2.84375-0.599219 3.20599-0.599219 3.50052-0.693164 3.72734-0.881055 3.95417-1.06895 4.07266-1.34401 4.08281-1.70625L4.9207-1.70625C4.91055-1.30677 4.81322-0.974154 4.62871-0.708398 4.44421-0.442643 4.19538-0.24375 3.88223-0.111719 3.56908 0.0203125 3.21784 0.0863281 2.82852 0.0863281Z" fill="#FFFFFF" transform="matrix(0.5 0 0 0.5 17.104 21)"/></g></g><path d="M204 215.133C204 208.985 208.985 204 215.133 204L395.867 204C402.015 204 407 208.985 407 215.133L407 343.867C407 350.015 402.015 355 395.867 355L215.133 355C208.985 355 204 350.015 204 343.867Z" fill="#FFFFFF" fill-rule="evenodd"/><text fill="#FFFFFF" font-family="Aptos,Aptos_MSFontService,sans-serif" font-weight="400" font-size="10.4" transform="translate(302.541 283)">c</text><g filter="url(#fx3)" transform="matrix(1.9958 0 0 2 179 373)"><g clip-path="url(#clip20)"><path d="M13.8625 18.7241C13.8625 16.115 15.9819 14 18.5965 14L219.07 14C221.684 14 223.804 16.115 223.804 18.7241L223.804 157.276C223.804 159.885 221.684 162 219.07 162L18.5965 162C15.9819 162 13.8625 159.885 13.8625 157.276Z" fill="#FFFFFF" fill-rule="evenodd"/></g></g><g clip-path="url(#clip21)" filter="url(#fx4)" transform="matrix(1.97297 0 0 2 380 512)"><g clip-path="url(#clip22)"><path d="M2.82852 0.0863281C2.38164 0.0863281 1.98555-0.0076172 1.64023-0.195508 1.29492-0.383398 1.02493-0.666081 0.830273-1.04355 0.635612-1.42103 0.538281-1.89414 0.538281-2.46289 0.538281-3.03164 0.633919-3.50645 0.825195-3.8873 1.01647-4.26816 1.28392-4.55423 1.62754-4.74551 1.97116-4.93678 2.37148-5.03242 2.82852-5.03242 3.21107-5.03242 3.55553-4.96979 3.86191-4.84453 4.16829-4.71927 4.41289-4.53053 4.5957-4.27832 4.77852-4.02611 4.875-3.70703 4.88516-3.32109L4.04727-3.32109C4.02695-3.63932 3.91185-3.88984 3.70195-4.07266 3.49206-4.25547 3.20599-4.34687 2.84375-4.34687 2.36302-4.34687 2.00417-4.18184 1.76719-3.85176 1.53021-3.52168 1.41172-3.05872 1.41172-2.46289 1.41172-2.0668 1.46419-1.73079 1.56914-1.45488 1.67409-1.17897 1.8332-0.967383 2.04648-0.820117 2.25977-0.672852 2.52552-0.599219 2.84375-0.599219 3.20599-0.599219 3.50052-0.693164 3.72734-0.881055 3.95417-1.06895 4.07266-1.34401 4.08281-1.70625L4.9207-1.70625C4.91055-1.30677 4.81322-0.974154 4.62871-0.708398 4.44421-0.442643 4.19538-0.24375 3.88223-0.111719 3.56908 0.0203125 3.21784 0.0863281 2.82852 0.0863281Z" fill="#FFFFFF" transform="matrix(0.506849 0 0 0.5 17.031 20)"/></g></g><path d="M204 410.448C204 405.23 208.23 401 213.448 401L613.552 401C618.77 401 623 405.23 623 410.448L623 687.552C623 692.77 618.77 697 613.552 697L213.448 697C208.23 697 204 692.77 204 687.552Z" fill="#FFFFFF" fill-rule="evenodd"/><text fill="#FFFFFF" font-family="Aptos,Aptos_MSFontService,sans-serif" font-weight="400" font-size="10.4" transform="translate(410.935 553)">c</text><path d="M16 31.1669C16 26.6564 19.6564 23 24.1668 23L159.833 23C164.344 23 168 26.6564 168 31.1669L168 63.8331C168 68.3436 164.344 72 159.833 72L24.1668 72C19.6564 72 16 68.3436 16 63.8331Z" stroke="#BFBFBF" stroke-width="2" stroke-miterlimit="8" fill="none" fill-rule="evenodd"/><text fill="#FFFFFF" font-family="Aptos,Aptos_MSFontService,sans-serif" font-weight="700" font-size="24" transform="translate(59.86 55)">LOGO</text><g filter="url(#fx5)" transform="matrix(2 0 0 2 179 -6)"><g><path d="M13.8333 18.1949C13.8333 15.8781 15.7114 14 18.0282 14L538.638 14C540.955 14 542.833 15.8781 542.833 18.1949L542.833 33.8051C542.833 36.1219 540.955 38 538.638 38L18.0282 38C15.7114 38 13.8333 36.1219 13.8333 33.8051Z" fill="#FFFFFF" fill-rule="evenodd"/></g></g><path d="M204 30.3897C204 25.7562 207.756 22 212.39 22L1253.61 22C1258.24 22 1262 25.7562 1262 30.3897L1262 61.6103C1262 66.2438 1258.24 70 1253.61 70L212.39 70C207.756 70 204 66.2438 204 61.6103Z" fill="#FFFFFF" fill-rule="evenodd"/><g filter="url(#fx6)" transform="matrix(2 0 0 2 179 86)"><g><path d="M13.8333 18.1949C13.8333 15.8781 15.7114 14 18.0282 14L538.638 14C540.955 14 542.833 15.8781 542.833 18.1949L542.833 33.8051C542.833 36.1219 540.955 38 538.638 38L18.0282 38C15.7114 38 13.8333 36.1219 13.8333 33.8051Z" fill="#FFFFFF" fill-rule="evenodd"/></g></g><path d="M204 122.39C204 117.756 207.756 114 212.39 114L1253.61 114C1258.24 114 1262 117.756 1262 122.39L1262 153.61C1262 158.244 1258.24 162 1253.61 162L212.39 162C207.756 162 204 158.244 204 153.61Z" fill="#FFFFFF" fill-rule="evenodd"/><g filter="url(#fx7)" transform="matrix(2 0 0 1.99038 1037 176)"><g clip-path="url(#clip23)"><path d="M13.8333 19.6611C13.8333 16.5719 16.3256 14.0676 19.3999 14.0676L108.267 14.0676C111.341 14.0676 113.833 16.5719 113.833 19.6611L113.833 84.3389C113.833 87.4281 111.341 89.9324 108.267 89.9324L19.3999 89.9324C16.3256 89.9324 13.8333 87.4281 13.8333 84.3389Z" fill="#FFFFFF" fill-rule="evenodd"/></g></g><g clip-path="url(#clip24)" filter="url(#fx8)" transform="matrix(2 0 0 2 1128 242)"><g><path d="M2.82852 0.0863281C2.38164 0.0863281 1.98555-0.0076172 1.64023-0.195508 1.29492-0.383398 1.02493-0.666081 0.830273-1.04355 0.635612-1.42103 0.538281-1.89414 0.538281-2.46289 0.538281-3.03164 0.633919-3.50645 0.825195-3.8873 1.01647-4.26816 1.28392-4.55423 1.62754-4.74551 1.97116-4.93678 2.37148-5.03242 2.82852-5.03242 3.21107-5.03242 3.55553-4.96979 3.86191-4.84453 4.16829-4.71927 4.41289-4.53053 4.5957-4.27832 4.77852-4.02611 4.875-3.70703 4.88516-3.32109L4.04727-3.32109C4.02695-3.63932 3.91185-3.88984 3.70195-4.07266 3.49206-4.25547 3.20599-4.34687 2.84375-4.34687 2.36302-4.34687 2.00417-4.18184 1.76719-3.85176 1.53021-3.52168 1.41172-3.05872 1.41172-2.46289 1.41172-2.0668 1.46419-1.73079 1.56914-1.45488 1.67409-1.17897 1.8332-0.967383 2.04648-0.820117 2.25977-0.672852 2.52552-0.599219 2.84375-0.599219 3.20599-0.599219 3.50052-0.693164 3.72734-0.881055 3.95417-1.06895 4.07266-1.34401 4.08281-1.70625L4.9207-1.70625C4.91055-1.30677 4.81322-0.974154 4.62871-0.708398 4.44421-0.442643 4.19538-0.24375 3.88223-0.111719 3.56908 0.0203125 3.21784 0.0863281 2.82852 0.0863281Z" fill="#FFFFFF" transform="matrix(0.5 0 0 0.5 17.0134 21)"/></g></g><path d="M1062 215.133C1062 208.984 1066.98 204 1073.13 204L1250.87 204C1257.02 204 1262 208.984 1262 215.133L1262 343.867C1262 350.016 1257.02 355 1250.87 355L1073.13 355C1066.98 355 1062 350.016 1062 343.867Z" fill="#FFFFFF" fill-rule="evenodd"/><text fill="#FFFFFF" font-family="Aptos,Aptos_MSFontService,sans-serif" font-weight="400" font-size="10.4" transform="translate(1159.36 283)">c</text><g filter="url(#fx9)" transform="matrix(1.99225 0 0 1.99038 395 176)"><g clip-path="url(#clip25)"><path d="M13.8871 19.6612C13.8871 16.5719 16.3891 14.0676 19.4754 14.0676L109.19 14.0676C112.276 14.0676 114.778 16.5719 114.778 19.6612L114.778 84.3389C114.778 87.4281 112.276 89.9324 109.19 89.9324L19.4754 89.9324C16.3891 89.9324 13.8871 87.4281 13.8871 84.3389Z" fill="#FFFFFF" fill-rule="evenodd"/></g></g><g clip-path="url(#clip26)" filter="url(#fx10)" transform="matrix(2 0 0 2 486 242)"><g><path d="M2.82852 0.0863281C2.38164 0.0863281 1.98555-0.0076172 1.64023-0.195508 1.29492-0.383398 1.02493-0.666081 0.830273-1.04355 0.635612-1.42103 0.538281-1.89414 0.538281-2.46289 0.538281-3.03164 0.633919-3.50645 0.825195-3.8873 1.01647-4.26816 1.28392-4.55423 1.62754-4.74551 1.97116-4.93678 2.37148-5.03242 2.82852-5.03242 3.21107-5.03242 3.55553-4.96979 3.86191-4.84453 4.16829-4.71927 4.41289-4.53053 4.5957-4.27832 4.77852-4.02611 4.875-3.70703 4.88516-3.32109L4.04727-3.32109C4.02695-3.63932 3.91185-3.88984 3.70195-4.07266 3.49206-4.25547 3.20599-4.34687 2.84375-4.34687 2.36302-4.34687 2.00417-4.18184 1.76719-3.85176 1.53021-3.52168 1.41172-3.05872 1.41172-2.46289 1.41172-2.0668 1.46419-1.73079 1.56914-1.45488 1.67409-1.17897 1.8332-0.967383 2.04648-0.820117 2.25977-0.672852 2.52552-0.599219 2.84375-0.599219 3.20599-0.599219 3.50052-0.693164 3.72734-0.881055 3.95417-1.06895 4.07266-1.34401 4.08281-1.70625L4.9207-1.70625C4.91055-1.30677 4.81322-0.974154 4.62871-0.708398 4.44421-0.442643 4.19538-0.24375 3.88223-0.111719 3.56908 0.0203125 3.21784 0.0863281 2.82852 0.0863281Z" fill="#FFFFFF" transform="matrix(0.5 0 0 0.5 17.1316 21)"/></g></g><path d="M420 215.133C420 208.985 424.985 204 431.133 204L609.867 204C616.016 204 621 208.985 621 215.133L621 343.867C621 350.015 616.016 355 609.867 355L431.133 355C424.985 355 420 350.015 420 343.867Z" fill="#FFFFFF" fill-rule="evenodd"/><text fill="#FFFFFF" font-family="Aptos,Aptos_MSFontService,sans-serif" font-weight="400" font-size="10.4" transform="translate(517.596 283)">c</text><g filter="url(#fx11)" transform="matrix(2 0 0 1.99038 609 176)"><g clip-path="url(#clip27)"><path d="M13.8333 19.6611C13.8333 16.5719 16.3256 14.0676 19.3999 14.0676L108.267 14.0676C111.341 14.0676 113.833 16.5719 113.833 19.6611L113.833 84.3389C113.833 87.4281 111.341 89.9324 108.267 89.9324L19.3999 89.9324C16.3256 89.9324 13.8333 87.4281 13.8333 84.3389Z" fill="#FFFFFF" fill-rule="evenodd"/></g></g><g clip-path="url(#clip28)" filter="url(#fx12)" transform="matrix(2 0 0 2 700 242)"><g><path d="M2.82852 0.0863281C2.38164 0.0863281 1.98555-0.0076172 1.64023-0.195508 1.29492-0.383398 1.02493-0.666081 0.830273-1.04355 0.635612-1.42103 0.538281-1.89414 0.538281-2.46289 0.538281-3.03164 0.633919-3.50645 0.825195-3.8873 1.01647-4.26816 1.28392-4.55423 1.62754-4.74551 1.97116-4.93678 2.37148-5.03242 2.82852-5.03242 3.21107-5.03242 3.55553-4.96979 3.86191-4.84453 4.16829-4.71927 4.41289-4.53053 4.5957-4.27832 4.77852-4.02611 4.875-3.70703 4.88516-3.32109L4.04727-3.32109C4.02695-3.63932 3.91185-3.88984 3.70195-4.07266 3.49206-4.25547 3.20599-4.34687 2.84375-4.34687 2.36302-4.34687 2.00417-4.18184 1.76719-3.85176 1.53021-3.52168 1.41172-3.05872 1.41172-2.46289 1.41172-2.0668 1.46419-1.73079 1.56914-1.45488 1.67409-1.17897 1.8332-0.967383 2.04648-0.820117 2.25977-0.672852 2.52552-0.599219 2.84375-0.599219 3.20599-0.599219 3.50052-0.693164 3.72734-0.881055 3.95417-1.06895 4.07266-1.34401 4.08281-1.70625L4.9207-1.70625C4.91055-1.30677 4.81322-0.974154 4.62871-0.708398 4.44421-0.442643 4.19538-0.24375 3.88223-0.111719 3.56908 0.0203125 3.21784 0.0863281 2.82852 0.0863281Z" fill="#FFFFFF" transform="matrix(0.5 0 0 0.5 17.0922 21)"/></g></g><path d="M634 215.133C634 208.984 638.984 204 645.133 204L822.867 204C829.016 204 834 208.984 834 215.133L834 343.867C834 350.016 829.016 355 822.867 355L645.133 355C638.984 355 634 350.016 634 343.867Z" fill="#FFFFFF" fill-rule="evenodd"/><text fill="#FFFFFF" font-family="Aptos,Aptos_MSFontService,sans-serif" font-weight="400" font-size="10.4" transform="translate(731.518 283)">c</text><g filter="url(#fx13)" transform="matrix(2 0 0 1.99038 823 176)"><g clip-path="url(#clip29)"><path d="M13.8333 19.6611C13.8333 16.5719 16.3256 14.0676 19.3999 14.0676L108.267 14.0676C111.341 14.0676 113.833 16.5719 113.833 19.6611L113.833 84.3389C113.833 87.4281 111.341 89.9324 108.267 89.9324L19.3999 89.9324C16.3256 89.9324 13.8333 87.4281 13.8333 84.3389Z" fill="#FFFFFF" fill-rule="evenodd"/></g></g><g clip-path="url(#clip30)" filter="url(#fx14)" transform="matrix(2 0 0 2 914 242)"><g><path d="M2.82852 0.0863281C2.38164 0.0863281 1.98555-0.0076172 1.64023-0.195508 1.29492-0.383398 1.02493-0.666081 0.830273-1.04355 0.635612-1.42103 0.538281-1.89414 0.538281-2.46289 0.538281-3.03164 0.633919-3.50645 0.825195-3.8873 1.01647-4.26816 1.28392-4.55423 1.62754-4.74551 1.97116-4.93678 2.37148-5.03242 2.82852-5.03242 3.21107-5.03242 3.55553-4.96979 3.86191-4.84453 4.16829-4.71927 4.41289-4.53053 4.5957-4.27832 4.77852-4.02611 4.875-3.70703 4.88516-3.32109L4.04727-3.32109C4.02695-3.63932 3.91185-3.88984 3.70195-4.07266 3.49206-4.25547 3.20599-4.34687 2.84375-4.34687 2.36302-4.34687 2.00417-4.18184 1.76719-3.85176 1.53021-3.52168 1.41172-3.05872 1.41172-2.46289 1.41172-2.0668 1.46419-1.73079 1.56914-1.45488 1.67409-1.17897 1.8332-0.967383 2.04648-0.820117 2.25977-0.672852 2.52552-0.599219 2.84375-0.599219 3.20599-0.599219 3.50052-0.693164 3.72734-0.881055 3.95417-1.06895 4.07266-1.34401 4.08281-1.70625L4.9207-1.70625C4.91055-1.30677 4.81322-0.974154 4.62871-0.708398 4.44421-0.442643 4.19538-0.24375 3.88223-0.111719 3.56908 0.0203125 3.21784 0.0863281 2.82852 0.0863281Z" fill="#FFFFFF" transform="matrix(0.5 0 0 0.5 17.0528 21)"/></g></g><path d="M848 215.133C848 208.984 852.984 204 859.133 204L1036.87 204C1043.02 204 1048 208.984 1048 215.133L1048 343.867C1048 350.016 1043.02 355 1036.87 355L859.133 355C852.984 355 848 350.016 848 343.867Z" fill="#FFFFFF" fill-rule="evenodd"/><text fill="#FFFFFF" font-family="Aptos,Aptos_MSFontService,sans-serif" font-weight="400" font-size="10.4" transform="translate(945.439 283)">c</text><g filter="url(#fx15)" transform="matrix(2 0 0 2 609 373)"><g><path d="M13.8333 18.7241C13.8333 16.115 15.9484 14 18.5574 14L323.109 14C325.718 14 327.833 16.115 327.833 18.7241L327.833 157.276C327.833 159.885 325.718 162 323.109 162L18.5574 162C15.9484 162 13.8333 159.885 13.8333 157.276Z" fill="#FFFFFF" fill-rule="evenodd"/></g></g><g clip-path="url(#clip31)" filter="url(#fx16)" transform="matrix(2 0 0 2 914 512)"><g><path d="M2.82852 0.0863281C2.38164 0.0863281 1.98555-0.0076172 1.64023-0.195508 1.29492-0.383398 1.02493-0.666081 0.830273-1.04355 0.635612-1.42103 0.538281-1.89414 0.538281-2.46289 0.538281-3.03164 0.633919-3.50645 0.825195-3.8873 1.01647-4.26816 1.28392-4.55423 1.62754-4.74551 1.97116-4.93678 2.37148-5.03242 2.82852-5.03242 3.21107-5.03242 3.55553-4.96979 3.86191-4.84453 4.16829-4.71927 4.41289-4.53053 4.5957-4.27832 4.77852-4.02611 4.875-3.70703 4.88516-3.32109L4.04727-3.32109C4.02695-3.63932 3.91185-3.88984 3.70195-4.07266 3.49206-4.25547 3.20599-4.34687 2.84375-4.34687 2.36302-4.34687 2.00417-4.18184 1.76719-3.85176 1.53021-3.52168 1.41172-3.05872 1.41172-2.46289 1.41172-2.0668 1.46419-1.73079 1.56914-1.45488 1.67409-1.17897 1.8332-0.967383 2.04648-0.820117 2.25977-0.672852 2.52552-0.599219 2.84375-0.599219 3.20599-0.599219 3.50052-0.693164 3.72734-0.881055 3.95417-1.06895 4.07266-1.34401 4.08281-1.70625L4.9207-1.70625C4.91055-1.30677 4.81322-0.974154 4.62871-0.708398 4.44421-0.442643 4.19538-0.24375 3.88223-0.111719 3.56908 0.0203125 3.21784 0.0863281 2.82852 0.0863281Z" fill="#FFFFFF" transform="matrix(0.5 0 0 0.5 17.0528 20)"/></g></g><path d="M634 410.448C634 405.23 638.23 401 643.448 401L1252.55 401C1257.77 401 1262 405.23 1262 410.448L1262 687.552C1262 692.77 1257.77 697 1252.55 697L643.448 697C638.23 697 634 692.77 634 687.552Z" fill="#FFFFFF" fill-rule="evenodd"/><text fill="#FFFFFF" font-family="Aptos,Aptos_MSFontService,sans-serif" font-weight="400" font-size="10.4" transform="translate(945.439 553)">c</text></g></svg>