<svg width="1280" height="720" xmlns="http://www.w3.org/2000/svg" xmlns:xlink="http://www.w3.org/1999/xlink" overflow="hidden"><defs><filter id="fx0" x="-10%" y="-10%" width="120%" height="120%" filterUnits="userSpaceOnUse" primitiveUnits="userSpaceOnUse"><feComponentTransfer color-interpolation-filters="sRGB"><feFuncR type="discrete" tableValues="0 0"/><feFuncG type="discrete" tableValues="0 0"/><feFuncB type="discrete" tableValues="0 0"/><feFuncA type="linear" slope="0.0784314" intercept="0"/></feComponentTransfer><feGaussianBlur stdDeviation="6.66667 6.66667"/></filter><filter id="fx1" x="-10%" y="-10%" width="120%" height="120%" filterUnits="userSpaceOnUse" primitiveUnits="userSpaceOnUse"><feComponentTransfer color-interpolation-filters="sRGB"><feFuncR type="discrete" tableValues="0 0"/><feFuncG type="discrete" tableValues="0 0"/><feFuncB type="discrete" tableValues="0 0"/><feFuncA type="linear" slope="0.0784314" intercept="0"/></feComponentTransfer><feGaussianBlur stdDeviation="4.44444 4.44444"/></filter><filter id="fx2" x="-10%" y="-10%" width="120%" height="120%" filterUnits="userSpaceOnUse" primitiveUnits="userSpaceOnUse"><feComponentTransfer color-interpolation-filters="sRGB"><feFuncR type="discrete" tableValues="0 0"/><feFuncG type="discrete" tableValues="0 0"/><feFuncB type="discrete" tableValues="0 0"/><feFuncA type="linear" slope="0.0784314" intercept="0"/></feComponentTransfer><feGaussianBlur stdDeviation="4.44444 4.48845"/></filter><filter id="fx3" x="-10%" y="-10%" width="120%" height="120%" filterUnits="userSpaceOnUse" primitiveUnits="userSpaceOnUse"><feComponentTransfer color-interpolation-filters="sRGB"><feFuncR type="discrete" tableValues="0 0"/><feFuncG type="discrete" tableValues="0 0"/><feFuncB type="discrete" tableValues="0 0"/><feFuncA type="linear" slope="0.0784314" intercept="0"/></feComponentTransfer><feGaussianBlur stdDeviation="4.44444 4.44444"/></filter><filter id="fx4" x="-10%" y="-10%" width="120%" height="120%" filterUnits="userSpaceOnUse" primitiveUnits="userSpaceOnUse"><feComponentTransfer color-interpolation-filters="sRGB"><feFuncR type="discrete" tableValues="0 0"/><feFuncG type="discrete" tableValues="0 0"/><feFuncB type="discrete" tableValues="0 0"/><feFuncA type="linear" slope="0.0784314" intercept="0"/></feComponentTransfer><feGaussianBlur stdDeviation="4.45339 4.45951"/></filter><filter id="fx5" x="-10%" y="-10%" width="120%" height="120%" filterUnits="userSpaceOnUse" primitiveUnits="userSpaceOnUse"><feComponentTransfer color-interpolation-filters="sRGB"><feFuncR type="discrete" tableValues="0 0"/><feFuncG type="discrete" tableValues="0 0"/><feFuncB type="discrete" tableValues="0 0"/><feFuncA type="linear" slope="0.0784314" intercept="0"/></feComponentTransfer><feGaussianBlur stdDeviation="4.44444 4.44444"/></filter><filter id="fx6" x="-10%" y="-10%" width="120%" height="120%" filterUnits="userSpaceOnUse" primitiveUnits="userSpaceOnUse"><feComponentTransfer color-interpolation-filters="sRGB"><feFuncR type="discrete" tableValues="0 0"/><feFuncG type="discrete" tableValues="0 0"/><feFuncB type="discrete" tableValues="0 0"/><feFuncA type="linear" slope="0.0784314" intercept="0"/></feComponentTransfer><feGaussianBlur stdDeviation="4.45119 4.45237"/></filter><filter id="fx7" x="-10%" y="-10%" width="120%" height="120%" filterUnits="userSpaceOnUse" primitiveUnits="userSpaceOnUse"><feComponentTransfer color-interpolation-filters="sRGB"><feFuncR type="discrete" tableValues="0 0"/><feFuncG type="discrete" tableValues="0 0"/><feFuncB type="discrete" tableValues="0 0"/><feFuncA type="linear" slope="0.0784314" intercept="0"/></feComponentTransfer><feGaussianBlur stdDeviation="4.44444 4.44444"/></filter><filter id="fx8" x="-10%" y="-10%" width="120%" height="120%" filterUnits="userSpaceOnUse" primitiveUnits="userSpaceOnUse"><feComponentTransfer color-interpolation-filters="sRGB"><feFuncR type="discrete" tableValues="0 0"/><feFuncG type="discrete" tableValues="0 0"/><feFuncB type="discrete" tableValues="0 0"/><feFuncA type="linear" slope="0.0784314" intercept="0"/></feComponentTransfer><feGaussianBlur stdDeviation="4.45339 4.45931"/></filter><filter id="fx9" x="-10%" y="-10%" width="120%" height="120%" filterUnits="userSpaceOnUse" primitiveUnits="userSpaceOnUse"><feComponentTransfer color-interpolation-filters="sRGB"><feFuncR type="discrete" tableValues="0 0"/><feFuncG type="discrete" tableValues="0 0"/><feFuncB type="discrete" tableValues="0 0"/><feFuncA type="linear" slope="0.0784314" intercept="0"/></feComponentTransfer><feGaussianBlur stdDeviation="4.44444 4.44444"/></filter><clipPath id="clip10"><rect x="0" y="0" width="1280" height="720"/></clipPath><clipPath id="clip11"><rect x="0.5" y="0.5" width="36" height="39"/></clipPath><clipPath id="clip12"><rect x="0" y="0" width="249" height="148"/></clipPath><clipPath id="clip13"><rect x="0.5" y="0.5" width="36" height="39"/></clipPath><clipPath id="clip14"><rect x="0" y="0" width="330" height="281"/></clipPath><clipPath id="clip15"><rect x="0.5" y="0.5" width="36" height="36"/></clipPath><clipPath id="clip16"><rect x="0.5" y="0.5" width="36" height="36"/></clipPath></defs><g clip-path="url(#clip10)"><rect x="0" y="0" width="1280" height="720" fill="#F3F4F6"/><g filter="url(#fx0)" transform="matrix(2 0 0 2 -34 -40)"><g><rect x="20.3333" y="20" width="92" height="360" fill="#001E50"/></g></g><rect x="0" y="0" width="184" height="720" fill="#001E50"/><path d="M16 31.1669C16 26.6564 19.6564 23 24.1668 23L159.833 23C164.344 23 168 26.6564 168 31.1669L168 63.8331C168 68.3436 164.344 72 159.833 72L24.1668 72C19.6564 72 16 68.3436 16 63.8331Z" stroke="#BFBFBF" stroke-width="2" stroke-miterlimit="8" fill="none" fill-rule="evenodd"/><text fill="#FFFFFF" font-family="Aptos,Aptos_MSFontService,sans-serif" font-weight="700" font-size="24" transform="translate(59.86 55)">LOGO</text><g filter="url(#fx1)" transform="matrix(2 0 0 2 174 -6)"><g><path d="M13.8333 18.1949C13.8333 15.8781 15.7114 14 18.0282 14L538.638 14C540.955 14 542.833 15.8781 542.833 18.1949L542.833 33.8051C542.833 36.1219 540.955 38 538.638 38L18.0282 38C15.7114 38 13.8333 36.1219 13.8333 33.8051Z" fill="#FFFFFF" fill-rule="evenodd"/></g></g><path d="M199 30.3897C199 25.7562 202.756 22 207.39 22L1248.61 22C1253.24 22 1257 25.7562 1257 30.3897L1257 61.6103C1257 66.2438 1253.24 70 1248.61 70L207.39 70C202.756 70 199 66.2438 199 61.6103Z" fill="#FFFFFF" fill-rule="evenodd"/><g filter="url(#fx2)" transform="matrix(2 0 0 1.98039 419 81)"><g><path d="M13.8333 17.6091C13.8333 15.6924 15.3719 14.1386 17.2698 14.1386L299.397 14.1386C301.295 14.1386 302.833 15.6924 302.833 17.6091L302.833 33.3909C302.833 35.3076 301.295 36.8614 299.397 36.8614L17.2698 36.8614C15.3719 36.8614 13.8333 35.3076 13.8333 33.3909Z" fill="#FFFFFF" fill-rule="evenodd"/></g></g><g clip-path="url(#clip11)" filter="url(#fx3)" transform="matrix(2 0 0 2 699 94)"><g><path d="M2.82852 0.0863281C2.38164 0.0863281 1.98555-0.0076172 1.64023-0.195508 1.29492-0.383398 1.02493-0.666081 0.830273-1.04355 0.635612-1.42103 0.538281-1.89414 0.538281-2.46289 0.538281-3.03164 0.633919-3.50645 0.825195-3.8873 1.01647-4.26816 1.28392-4.55423 1.62754-4.74551 1.97116-4.93678 2.37148-5.03242 2.82852-5.03242 3.21107-5.03242 3.55553-4.96979 3.86191-4.84453 4.16829-4.71927 4.41289-4.53053 4.5957-4.27832 4.77852-4.02611 4.875-3.70703 4.88516-3.32109L4.04727-3.32109C4.02695-3.63932 3.91185-3.88984 3.70195-4.07266 3.49206-4.25547 3.20599-4.34687 2.84375-4.34687 2.36302-4.34687 2.00417-4.18184 1.76719-3.85176 1.53021-3.52168 1.41172-3.05872 1.41172-2.46289 1.41172-2.0668 1.46419-1.73079 1.56914-1.45488 1.67409-1.17897 1.8332-0.967383 2.04648-0.820117 2.25977-0.672852 2.52552-0.599219 2.84375-0.599219 3.20599-0.599219 3.50052-0.693164 3.72734-0.881055 3.95417-1.06895 4.07266-1.34401 4.08281-1.70625L4.9207-1.70625C4.91055-1.30677 4.81322-0.974154 4.62871-0.708398 4.44421-0.442643 4.19538-0.24375 3.88223-0.111719 3.56908 0.0203125 3.21784 0.0863281 2.82852 0.0863281Z" fill="#FFFFFF" transform="matrix(0.5 0 0 0.5 17.0253 21)"/></g></g><path d="M444 115.873C444 112.077 447.077 109 450.873 109L1015.13 109C1018.92 109 1022 112.077 1022 115.873L1022 147.127C1022 150.923 1018.92 154 1015.13 154L450.873 154C447.077 154 444 150.923 444 147.127Z" fill="#FFFFFF" fill-rule="evenodd"/><text fill="#FFFFFF" font-family="Aptos,Aptos_MSFontService,sans-serif" font-weight="400" font-size="10.4" transform="translate(730.384 135)">c</text><g filter="url(#fx4)" transform="matrix(1.99598 0 0 1.99324 174 430)"><g clip-path="url(#clip12)" transform="translate(-1.42109e-14 0)"><path d="M13.8612 19.7429C13.8612 16.5974 16.4076 14.0475 19.5488 14.0475L229.117 14.0475C232.258 14.0475 234.805 16.5974 234.805 19.7429L234.805 128.257C234.805 131.403 232.258 133.953 229.117 133.953L19.5488 133.953C16.4076 133.953 13.8612 131.403 13.8612 128.257Z" fill="#FFFFFF" fill-rule="evenodd"/></g></g><g clip-path="url(#clip13)" filter="url(#fx5)" transform="matrix(2 0 0 2 385 540)"><g><path d="M2.82852 0.0863281C2.38164 0.0863281 1.98555-0.0076172 1.64023-0.195508 1.29492-0.383398 1.02493-0.666081 0.830273-1.04355 0.635612-1.42103 0.538281-1.89414 0.538281-2.46289 0.538281-3.03164 0.633919-3.50645 0.825195-3.8873 1.01647-4.26816 1.28392-4.55423 1.62754-4.74551 1.97116-4.93678 2.37148-5.03242 2.82852-5.03242 3.21107-5.03242 3.55553-4.96979 3.86191-4.84453 4.16829-4.71927 4.41289-4.53053 4.5957-4.27832 4.77852-4.02611 4.875-3.70703 4.88516-3.32109L4.04727-3.32109C4.02695-3.63932 3.91185-3.88984 3.70195-4.07266 3.49206-4.25547 3.20599-4.34687 2.84375-4.34687 2.36302-4.34687 2.00417-4.18184 1.76719-3.85176 1.53021-3.52168 1.41172-3.05872 1.41172-2.46289 1.41172-2.0668 1.46419-1.73079 1.56914-1.45488 1.67409-1.17897 1.8332-0.967383 2.04648-0.820117 2.25977-0.672852 2.52552-0.599219 2.84375-0.599219 3.20599-0.599219 3.50052-0.693164 3.72734-0.881055 3.95417-1.06895 4.07266-1.34401 4.08281-1.70625L4.9207-1.70625C4.91055-1.30677 4.81322-0.974154 4.62871-0.708398 4.44421-0.442643 4.19538-0.24375 3.88223-0.111719 3.56908 0.0203125 3.21784 0.0863281 2.82852 0.0863281Z" fill="#FFFFFF" transform="matrix(0.5 0 0 0.5 17.2188 21)"/></g></g><path d="M199 469.352C199 463.083 204.083 458 210.352 458L628.648 458C634.917 458 640 463.083 640 469.352L640 685.648C640 691.917 634.917 697 628.648 697L210.352 697C204.083 697 199 691.917 199 685.648Z" fill="#FFFFFF" fill-rule="evenodd"/><text fill="#FFFFFF" font-family="Aptos,Aptos_MSFontService,sans-serif" font-weight="400" font-size="10.4" transform="translate(416.771 581)">c</text><g filter="url(#fx6)" transform="matrix(1.99697 0 0 1.99644 634 165)"><g clip-path="url(#clip14)" transform="matrix(1 0 0 1 0 1.42109e-14)"><path d="M13.8543 20.8598C13.8543 17.085 16.9135 14.025 20.6873 14.025L308.979 14.025C312.753 14.025 315.812 17.085 315.812 20.8598L315.812 260.14C315.812 263.915 312.753 266.975 308.979 266.975L20.6873 266.975C16.9135 266.975 13.8543 263.915 13.8543 260.14Z" fill="#FFFFFF" fill-rule="evenodd"/></g></g><g clip-path="url(#clip15)" filter="url(#fx7)" transform="matrix(2 0 0 2 926 408)"><g><path d="M2.82852 0.0863281C2.38164 0.0863281 1.98555-0.0076172 1.64023-0.195508 1.29492-0.383398 1.02493-0.666081 0.830273-1.04355 0.635612-1.42103 0.538281-1.89414 0.538281-2.46289 0.538281-3.03164 0.633919-3.50645 0.825195-3.8873 1.01647-4.26816 1.28392-4.55423 1.62754-4.74551 1.97116-4.93678 2.37148-5.03242 2.82852-5.03242 3.21107-5.03242 3.55553-4.96979 3.86191-4.84453 4.16829-4.71927 4.41289-4.53053 4.5957-4.27832 4.77852-4.02611 4.875-3.70703 4.88516-3.32109L4.04727-3.32109C4.02695-3.63932 3.91185-3.88984 3.70195-4.07266 3.49206-4.25547 3.20599-4.34687 2.84375-4.34687 2.36302-4.34687 2.00417-4.18184 1.76719-3.85176 1.53021-3.52168 1.41172-3.05872 1.41172-2.46289 1.41172-2.0668 1.46419-1.73079 1.56914-1.45488 1.67409-1.17897 1.8332-0.967383 2.04648-0.820117 2.25977-0.672852 2.52552-0.599219 2.84375-0.599219 3.20599-0.599219 3.50052-0.693164 3.72734-0.881055 3.95417-1.06895 4.07266-1.34401 4.08281-1.70625L4.9207-1.70625C4.91055-1.30677 4.81322-0.974154 4.62871-0.708398 4.44421-0.442643 4.19538-0.24375 3.88223-0.111719 3.56908 0.0203125 3.21784 0.0863281 2.82852 0.0863281Z" fill="#FFFFFF" transform="matrix(0.5 0 0 0.5 17.2187 20)"/></g></g><path d="M659 206.645C659 199.109 665.109 193 672.645 193L1248.35 193C1255.89 193 1262 199.109 1262 206.645L1262 684.355C1262 691.891 1255.89 698 1248.35 698L672.645 698C665.109 698 659 691.891 659 684.355Z" fill="#FFFFFF" fill-rule="evenodd"/><text fill="#FFFFFF" font-family="Aptos,Aptos_MSFontService,sans-serif" font-weight="400" font-size="10.4" transform="translate(957.771 449)">c</text><g filter="url(#fx8)" transform="matrix(1.99598 0 0 1.99333 174 165)"><g transform="translate(-1.42109e-14 0)"><path d="M13.8612 19.8374C13.8612 16.6393 16.4503 14.0468 19.644 14.0468L229.022 14.0468C232.216 14.0468 234.805 16.6393 234.805 19.8374L234.805 130.163C234.805 133.361 232.216 135.953 229.022 135.953L19.644 135.953C16.4503 135.953 13.8612 133.361 13.8612 130.163Z" fill="#FFFFFF" fill-rule="evenodd"/></g></g><g clip-path="url(#clip16)" filter="url(#fx9)" transform="matrix(2 0 0 2 385 277)"><g><path d="M2.82852 0.0863281C2.38164 0.0863281 1.98555-0.0076172 1.64023-0.195508 1.29492-0.383398 1.02493-0.666081 0.830273-1.04355 0.635612-1.42103 0.538281-1.89414 0.538281-2.46289 0.538281-3.03164 0.633919-3.50645 0.825195-3.8873 1.01647-4.26816 1.28392-4.55423 1.62754-4.74551 1.97116-4.93678 2.37148-5.03242 2.82852-5.03242 3.21107-5.03242 3.55553-4.96979 3.86191-4.84453 4.16829-4.71927 4.41289-4.53053 4.5957-4.27832 4.77852-4.02611 4.875-3.70703 4.88516-3.32109L4.04727-3.32109C4.02695-3.63932 3.91185-3.88984 3.70195-4.07266 3.49206-4.25547 3.20599-4.34687 2.84375-4.34687 2.36302-4.34687 2.00417-4.18184 1.76719-3.85176 1.53021-3.52168 1.41172-3.05872 1.41172-2.46289 1.41172-2.0668 1.46419-1.73079 1.56914-1.45488 1.67409-1.17897 1.8332-0.967383 2.04648-0.820117 2.25977-0.672852 2.52552-0.599219 2.84375-0.599219 3.20599-0.599219 3.50052-0.693164 3.72734-0.881055 3.95417-1.06895 4.07266-1.34401 4.08281-1.70625L4.9207-1.70625C4.91055-1.30677 4.81322-0.974154 4.62871-0.708398 4.44421-0.442643 4.19538-0.24375 3.88223-0.111719 3.56908 0.0203125 3.21784 0.0863281 2.82852 0.0863281Z" fill="#FFFFFF" transform="matrix(0.5 0 0 0.5 17.2188 20)"/></g></g><path d="M199 204.542C199 198.168 204.168 193 210.542 193L628.458 193C634.832 193 640 198.168 640 204.542L640 424.458C640 430.832 634.832 436 628.458 436L210.542 436C204.168 436 199 430.832 199 424.458Z" fill="#FFFFFF" fill-rule="evenodd"/><text fill="#FFFFFF" font-family="Aptos,Aptos_MSFontService,sans-serif" font-weight="400" font-size="10.4" transform="translate(416.771 318)">c</text></g></svg>