<svg width="267" height="267" xmlns="http://www.w3.org/2000/svg" xmlns:xlink="http://www.w3.org/1999/xlink" xml:space="preserve" overflow="hidden"><g transform="translate(-2520 -1610)"><path d="M2523.5 1743.5C2523.5 1671.7 2581.7 1613.5 2653.5 1613.5 2725.3 1613.5 2783.5 1671.7 2783.5 1743.5 2783.5 1815.3 2725.3 1873.5 2653.5 1873.5 2581.7 1873.5 2523.5 1815.3 2523.5 1743.5Z" stroke="#FFFFFF" stroke-width="6.875" stroke-miterlimit="8" fill="#DBEAFE" fill-rule="evenodd"/><g><g><g><path d="M43.3333 83.9583C43.3333 89.9414 38.4831 94.7916 32.5 94.7916 26.5169 94.7916 21.6667 89.9414 21.6667 83.9583 21.6667 77.9752 26.5169 73.125 32.5 73.125 38.4831 73.125 43.3333 77.9752 43.3333 83.9583Z" fill="#001E50" transform="matrix(1 0 0 1 2588 1678)"/><path d="M108.333 83.9583C108.333 89.9414 103.483 94.7916 97.5 94.7916 91.5169 94.7916 86.6666 89.9414 86.6666 83.9583 86.6666 77.9752 91.5169 73.125 97.5 73.125 103.483 73.125 108.333 77.9752 108.333 83.9583Z" fill="#001E50" transform="matrix(1 0 0 1 2588 1678)"/><path d="M52.8125 56.875 52.8125 40.625 71.3645 40.625C72.8541 40.625 74.2083 41.1666 75.1562 42.25L89.7812 56.875 52.8125 56.875ZM47.3958 56.875 13.1354 56.875 27.7604 42.25C28.8437 41.1666 30.1979 40.625 31.5521 40.625L47.3958 40.625 47.3958 56.875ZM111.042 56.875 99.802 56.875C98.3125 56.875 96.9583 56.3333 96.0104 55.25L78.9479 38.3229C76.9166 36.2916 74.2083 35.2083 71.2291 35.2083L31.5521 35.2083C28.7083 35.2083 25.8646 36.2916 23.8333 38.3229L7.04166 55.25C5.95833 56.3333 5.41666 57.6875 5.41666 59.1771L5.41666 73.125C5.41666 79.0833 10.2917 83.9583 16.25 83.9583L17.6042 83.9583C17.6042 75.6979 24.2396 69.0625 32.5 69.0625 40.7604 69.0625 47.3958 75.6979 47.3958 83.9583L82.6041 83.9583C82.6041 75.6979 89.2395 69.0625 97.5 69.0625 105.76 69.0625 112.396 75.6979 112.396 83.9583L119.167 83.9583C122.146 83.9583 124.583 81.5208 124.583 78.5416L124.583 70.4166C124.583 62.9687 118.49 56.875 111.042 56.875Z" fill="#001E50" transform="matrix(1 0 0 1 2588 1678)"/></g></g></g></g></svg>