<svg width="267" height="267" xmlns="http://www.w3.org/2000/svg" xmlns:xlink="http://www.w3.org/1999/xlink" xml:space="preserve" overflow="hidden"><g transform="translate(-2520 -469)"><path d="M2523.5 602.5C2523.5 530.703 2581.7 472.5 2653.5 472.5 2725.3 472.5 2783.5 530.703 2783.5 602.5 2783.5 674.297 2725.3 732.5 2653.5 732.5 2581.7 732.5 2523.5 674.297 2523.5 602.5Z" stroke="#FFFFFF" stroke-width="6.875" stroke-miterlimit="8" fill="#DBEAFE" fill-rule="evenodd"/><g><g><g><path d="M2615.08 555.958 2606.96 555.958 2606.96 648.042 2699.04 648.042 2699.04 639.917 2615.08 639.917Z" fill="#001E50"/><path d="M2691.05 611.344 2674.67 594.958 2666.54 603.083 2653 589.542 2644.88 597.667 2626.05 578.844 2620.36 584.531 2644.88 609.042 2653 600.917 2666.54 614.458 2674.67 606.333 2685.36 617.031 2677.38 625.021 2699.04 625.021 2699.04 603.354Z" fill="#001E50"/></g></g></g></g></svg>