<svg width="267" height="267" xmlns="http://www.w3.org/2000/svg" xmlns:xlink="http://www.w3.org/1999/xlink" xml:space="preserve" overflow="hidden"><g transform="translate(-2520 -849)"><path d="M2523.5 982.5C2523.5 910.703 2581.7 852.5 2653.5 852.5 2725.3 852.5 2783.5 910.703 2783.5 982.5 2783.5 1054.3 2725.3 1112.5 2653.5 1112.5 2581.7 1112.5 2523.5 1054.3 2523.5 982.5Z" stroke="#FFFFFF" stroke-width="6.875" stroke-miterlimit="8" fill="#DBEAFE" fill-rule="evenodd"/><g><g><g><path d="M2704.46 1014.5C2704.46 1016.26 2702.43 1017.89 2699.04 1019.1L2699.04 1014.23C2700.94 1013.69 2702.83 1012.88 2704.46 1012.06L2704.46 1014.5ZM2693.62 1005.56 2693.62 1000.69C2695.52 1000.15 2697.42 999.333 2699.04 998.521L2699.04 1000.96C2699.04 1002.72 2697.01 1004.34 2693.62 1005.56ZM2693.62 1020.73C2692 1021.14 2690.1 1021.41 2688.21 1021.68L2688.21 1016.4C2689.97 1016.13 2691.86 1015.85 2693.62 1015.58L2693.62 1020.73ZM2682.79 1002.85C2684.55 1002.58 2686.45 1002.31 2688.21 1002.04L2688.21 1007.19C2686.58 1007.59 2684.69 1007.86 2682.79 1008.14L2682.79 1002.85ZM2682.79 1022.35C2681.03 1022.49 2679.27 1022.63 2677.38 1022.63L2677.38 1017.21C2679 1017.21 2680.9 1017.07 2682.79 1016.94L2682.79 1022.35ZM2671.96 1009.08 2671.96 1003.67C2673.58 1003.67 2675.48 1003.53 2677.38 1003.4L2677.38 1008.81C2675.61 1008.95 2673.85 1008.95 2671.96 1009.08ZM2671.96 1022.63C2670.06 1022.63 2668.3 1022.49 2666.54 1022.35L2666.54 1017.21C2667.49 1017.21 2668.3 1017.21 2669.25 1017.21 2670.06 1017.21 2671.01 1017.21 2671.96 1017.21L2671.96 1022.63ZM2661.12 1003.4C2662.89 1003.53 2664.65 1003.67 2666.54 1003.67L2666.54 1009.08C2664.65 1009.08 2662.89 1008.95 2661.12 1008.81L2661.12 1003.4ZM2661.12 1021.68C2659.23 1021.41 2657.33 1021.14 2655.71 1020.73L2655.71 1016.4C2657.47 1016.67 2659.23 1016.8 2661.12 1016.94L2661.12 1021.68ZM2650.29 1007.19 2650.29 1001.91C2652.05 1002.18 2653.81 1002.58 2655.71 1002.72L2655.71 1008.14C2653.81 1007.86 2651.92 1007.59 2650.29 1007.19ZM2650.29 1019.1C2646.91 1017.75 2644.88 1016.13 2644.88 1014.5L2644.88 1014.23C2644.88 1014.23 2644.88 1014.23 2645.01 1014.23 2645.42 1014.36 2645.69 1014.5 2646.09 1014.5 2647.45 1014.91 2648.8 1015.18 2650.29 1015.45L2650.29 1019.1ZM2628.62 1000.69C2629.57 1000.69 2630.39 1000.82 2631.33 1000.82L2631.33 1000.96C2631.33 1002.85 2631.74 1004.75 2632.69 1006.24 2631.33 1006.24 2629.98 1006.1 2628.62 1005.97L2628.62 1000.69ZM2623.21 984.438C2624.97 984.708 2626.73 985.115 2628.62 985.25L2628.62 990.667C2626.73 990.396 2624.83 990.125 2623.21 989.719L2623.21 984.438ZM2623.21 1005.43C2621.31 1005.16 2619.42 1004.89 2617.79 1004.48L2617.79 999.198C2619.55 999.469 2621.31 999.875 2623.21 1000.01L2623.21 1005.43ZM2612.38 983.354 2612.38 980.917C2614 981.729 2615.76 982.406 2617.79 982.948L2617.79 987.958C2614.41 986.74 2612.38 985.115 2612.38 983.354ZM2612.38 1002.85C2608.99 1001.5 2606.96 999.875 2606.96 998.25L2606.96 995.813C2608.58 996.625 2610.34 997.302 2612.38 997.844L2612.38 1002.85ZM2606.96 960.604C2608.58 961.417 2610.34 962.094 2612.38 962.635L2612.38 967.646C2608.99 966.292 2606.96 964.667 2606.96 963.042L2606.96 960.604ZM2623.21 964.938 2623.21 970.354C2621.31 970.083 2619.42 969.813 2617.79 969.406L2617.79 964.125C2619.55 964.396 2621.31 964.667 2623.21 964.938ZM2636.75 941.375C2653.27 941.375 2666.54 945.031 2666.54 949.5 2666.54 953.969 2653.27 957.625 2636.75 957.625 2620.23 957.625 2606.96 953.969 2606.96 949.5 2606.96 945.031 2620.23 941.375 2636.75 941.375ZM2644.88 1005.56C2641.49 1004.21 2639.46 1002.58 2639.46 1000.96L2639.46 998.521C2641.08 999.333 2642.84 1000.01 2644.88 1000.55L2644.88 1005.56ZM2661.12 967.646 2661.12 962.771C2663.02 962.229 2664.92 961.417 2666.54 960.604L2666.54 963.042C2666.54 964.802 2664.51 966.427 2661.12 967.646ZM2650.29 970.219 2650.29 964.938C2652.05 964.667 2653.95 964.396 2655.71 964.125L2655.71 969.271C2654.08 969.677 2652.19 969.948 2650.29 970.219ZM2639.46 971.167 2639.46 965.75C2641.08 965.75 2642.98 965.615 2644.88 965.479L2644.88 970.896C2643.11 971.031 2641.35 971.031 2639.46 971.167ZM2628.62 970.896 2628.62 965.479C2630.39 965.615 2632.15 965.75 2634.04 965.75L2634.04 971.167C2632.15 971.031 2630.39 971.031 2628.62 970.896ZM2699.04 987.417C2699.04 991.885 2685.77 995.542 2669.25 995.542 2652.73 995.542 2639.46 991.885 2639.46 987.417 2639.46 982.948 2652.73 979.292 2669.25 979.292 2685.77 979.292 2699.04 982.948 2699.04 987.417ZM2707.17 991.479 2707.17 987.417C2707.17 981.052 2702.16 976.448 2692.41 973.875 2688.75 972.927 2684.55 972.115 2679.81 971.708 2679.95 971.167 2679.95 970.49 2679.95 969.813 2679.95 966.021 2678.19 962.771 2674.53 960.333L2674.53 949.5C2674.53 943.135 2669.52 938.531 2659.77 935.958 2653.41 934.198 2645.28 933.25 2636.61 933.25 2625.24 933.25 2598.7 934.875 2598.7 949.5L2598.7 963.042C2598.7 966.833 2600.46 970.083 2604.11 972.521L2604.11 975.094C2600.86 977.396 2598.7 980.51 2598.7 984.708L2598.7 998.25C2598.7 1004.61 2603.71 1009.22 2613.46 1011.79 2619.82 1013.55 2627.95 1014.5 2636.61 1014.5 2636.61 1020.86 2641.62 1025.47 2651.38 1028.04 2657.74 1029.8 2665.86 1030.75 2674.53 1030.75 2685.91 1030.75 2712.45 1029.13 2712.45 1014.5L2712.45 1000.96C2712.58 997.167 2710.82 993.917 2707.17 991.479Z" fill="#001E50"/></g></g></g></g></svg>