<svg width="267" height="267" xmlns="http://www.w3.org/2000/svg" xmlns:xlink="http://www.w3.org/1999/xlink" xml:space="preserve" overflow="hidden"><g transform="translate(-2520 -1230)"><path d="M2523.5 1363.5C2523.5 1291.7 2581.7 1233.5 2653.5 1233.5 2725.3 1233.5 2783.5 1291.7 2783.5 1363.5 2783.5 1435.3 2725.3 1493.5 2653.5 1493.5 2581.7 1493.5 2523.5 1435.3 2523.5 1363.5Z" stroke="#FFFFFF" stroke-width="6.875" stroke-miterlimit="8" fill="#DBEAFE" fill-rule="evenodd"/><g><g><g><path d="M2636.76 1335.92 2669.2 1335.92 2677.17 1316.64C2677.52 1315.79 2677.42 1314.82 2676.9 1314.07 2676.16 1313.08 2674.81 1312.78 2673.73 1313.36L2663.82 1318.31 2654.19 1313.5C2653.43 1313.12 2652.53 1313.12 2651.77 1313.5L2642.15 1318.31 2632.21 1313.35C2631.26 1312.83 2630.09 1313 2629.32 1313.76 2628.6 1314.53 2628.39 1315.65 2628.8 1316.63Z" fill="#001E50"/><path d="M2643.57 1371.89C2645.46 1371.89 2647 1370.36 2647 1368.46 2647 1366.57 2645.46 1365.03 2643.57 1365.03 2641.67 1365.03 2640.14 1366.57 2640.14 1368.46 2640.14 1370.35 2641.67 1371.89 2643.57 1371.89Z" fill="#001E50"/><path d="M2662.43 1383.9C2660.54 1383.9 2659 1385.44 2659 1387.33 2659 1389.22 2660.54 1390.76 2662.43 1390.76 2664.33 1390.76 2665.86 1389.22 2665.86 1387.33 2665.86 1385.44 2664.33 1383.9 2662.43 1383.9Z" fill="#001E50"/><path d="M2669.85 1341.33 2636.15 1341.33C2621.73 1355.24 2606.96 1365.59 2606.96 1384.67 2606.96 1397.93 2612.83 1406.57 2625.32 1410.97 2626.78 1411.49 2628.32 1411.75 2629.87 1411.75L2676.13 1411.75C2677.68 1411.75 2679.22 1411.49 2680.68 1410.97 2693.17 1406.57 2699.04 1397.93 2699.04 1384.67 2699.04 1365.59 2684.27 1355.24 2669.85 1341.33ZM2643.57 1360.97C2647.7 1360.97 2651.06 1364.32 2651.06 1368.46 2651.06 1372.6 2647.7 1375.95 2643.57 1375.95 2639.43 1375.95 2636.07 1372.6 2636.07 1368.46 2636.08 1364.33 2639.43 1360.97 2643.57 1360.97ZM2637.66 1390.36 2664.97 1363.05 2667.84 1365.92 2640.53 1393.23ZM2662.43 1394.82C2658.3 1394.82 2654.94 1391.47 2654.94 1387.33 2654.94 1383.19 2658.3 1379.84 2662.43 1379.84 2666.57 1379.84 2669.93 1383.19 2669.93 1387.33 2669.92 1391.47 2666.57 1394.82 2662.43 1394.82Z" fill="#001E50"/></g></g></g></g></svg>